<svg width="100" height="49" viewBox="0 0 100 49" fill="none" xmlns="http://www.w3.org/2000/svg">
<path opacity="0.85" d="M5.50099 7.40067C6.2961 7.03321 6.98728 6.47369 7.51225 5.77253L8.81484 4.0328C12.0275 -0.258017 18.0395 -1.27771 22.4873 1.71382L27.5631 5.12771C29.2234 6.24438 31.1788 6.84081 33.1796 6.84081H53.5078H89.9361C95.6113 6.84081 100.164 11.5307 99.9955 17.2034L99.3498 38.9411C99.1883 44.3804 94.7322 48.7061 89.2905 48.7061H15.8361C10.1609 48.7061 5.60824 44.0162 5.77672 38.3435L6.09067 27.7735L6.30243 20.6439C6.36012 18.7016 5.04371 16.9868 3.15254 16.5406C-0.631614 15.6478 -1.15368 10.4762 2.37569 8.84504L5.50099 7.40067Z" fill="#A6CD4E"/>
</svg>
