<svg width="28" height="30" viewBox="0 0 28 30" fill="none" xmlns="http://www.w3.org/2000/svg">
<path d="M26.2833 7.05L26.3 7.03333L20.1 0.833333L18.3333 2.6L21.85 6.11667C20.2833 6.71667 19.1667 8.21667 19.1667 10C19.1667 12.3 21.0333 14.1667 23.3333 14.1667C23.9333 14.1667 24.4833 14.0333 25 13.8167V25.8333C25 26.75 24.25 27.5 23.3333 27.5C22.4167 27.5 21.6667 26.75 21.6667 25.8333V18.3333C21.6667 16.5 20.1667 15 18.3333 15H16.6667V3.33333C16.6667 1.5 15.1667 0 13.3333 0H3.33333C1.5 0 0 1.5 0 3.33333V30H16.6667V17.5H19.1667V25.8333C19.1667 28.1333 21.0333 30 23.3333 30C25.6333 30 27.5 28.1333 27.5 25.8333V10C27.5 8.85 27.0333 7.8 26.2833 7.05ZM13.3333 11.6667H3.33333V3.33333H13.3333V11.6667ZM23.3333 11.6667C22.4167 11.6667 21.6667 10.9167 21.6667 10C21.6667 9.08333 22.4167 8.33333 23.3333 8.33333C24.25 8.33333 25 9.08333 25 10C25 10.9167 24.25 11.6667 23.3333 11.6667Z" fill="black"/>
</svg>
