<svg width="38" height="38" viewBox="0 0 38 38" fill="none" xmlns="http://www.w3.org/2000/svg">
<path fill-rule="evenodd" clip-rule="evenodd" d="M19.0645 0C20.4369 0 21.5805 0.737092 22.2667 1.92972L26.8414 10.1178L34.847 11.6813C36.2194 11.9537 37.3631 12.9792 37.8205 14.3412C38.278 15.7033 37.8205 17.1752 36.9056 18.1549L30.7298 23.9784L32.1022 33.6521C32.331 35.0554 31.6448 36.4563 30.5011 37.2849C29.3574 38.1136 27.985 38.2303 26.6127 37.5917L19.0645 33.7071L11.2876 37.5917C10.1439 38.2303 8.5428 38.1136 7.39914 37.2849C6.25548 36.4563 5.56928 35.0554 5.79801 33.6521L7.17041 23.9784L1.22337 18.1549C0.0797061 17.1752 -0.149026 15.7033 0.0797062 14.3412C0.537171 12.9792 1.68083 11.9537 3.05323 11.6813L11.0589 10.1178L15.6335 1.92972C16.3197 0.737092 17.6921 0 19.0645 0ZM13.5748 13.5103L3.73929 15.4102L11.2875 22.5866L9.68633 34.1992L19.0644 29.4493L28.4424 34.1992L26.6125 22.5866L34.1607 15.4102L24.5539 13.5103L19.0644 3.79988L13.5748 13.5103Z" fill="black"/>
</svg>
