<svg width="26" height="34" viewBox="0 0 26 34" fill="none" xmlns="http://www.w3.org/2000/svg">
<path d="M22.6667 11.3333H21.0476V8.09524C21.0476 3.62667 17.421 0 12.9524 0C8.48381 0 4.85714 3.62667 4.85714 8.09524V11.3333H3.2381C1.45714 11.3333 0 12.7905 0 14.5714V30.7619C0 32.5429 1.45714 34 3.2381 34H22.6667C24.4476 34 25.9048 32.5429 25.9048 30.7619V14.5714C25.9048 12.7905 24.4476 11.3333 22.6667 11.3333ZM12.9524 25.9048C11.1714 25.9048 9.71429 24.4476 9.71429 22.6667C9.71429 20.8857 11.1714 19.4286 12.9524 19.4286C14.7333 19.4286 16.1905 20.8857 16.1905 22.6667C16.1905 24.4476 14.7333 25.9048 12.9524 25.9048ZM17.9714 11.3333H7.93333V8.09524C7.93333 5.32667 10.1838 3.07619 12.9524 3.07619C15.721 3.07619 17.9714 5.32667 17.9714 8.09524V11.3333Z" fill="black"/>
</svg>
