<svg width="38" height="38" viewBox="0 0 38 38" fill="none" xmlns="http://www.w3.org/2000/svg">
<path d="M14.25 8.55V14.25H8.55V8.55H14.25ZM17.1 5.7H5.7V17.1H17.1V5.7ZM14.25 23.75V29.45H8.55V23.75H14.25ZM17.1 20.9H5.7V32.3H17.1V20.9ZM29.45 8.55V14.25H23.75V8.55H29.45ZM32.3 5.7H20.9V17.1H32.3V5.7ZM20.9 20.9H23.75V23.75H20.9V20.9ZM23.75 23.75H26.6V26.6H23.75V23.75ZM26.6 20.9H29.45V23.75H26.6V20.9ZM20.9 26.6H23.75V29.45H20.9V26.6ZM23.75 29.45H26.6V32.3H23.75V29.45ZM26.6 26.6H29.45V29.45H26.6V26.6ZM29.45 23.75H32.3V26.6H29.45V23.75ZM29.45 29.45H32.3V32.3H29.45V29.45ZM38 9.5H34.2V3.8H28.5V0H38V9.5ZM38 38V28.5H34.2V34.2H28.5V38H38ZM0 38H9.5V34.2H3.8V28.5H0V38ZM0 0V9.5H3.8V3.8H9.5V0H0Z" fill="black"/>
</svg>
