<svg width="27" height="33" viewBox="0 0 27 33" fill="none" xmlns="http://www.w3.org/2000/svg">
<path d="M6.05813 5.76281C4.74188 4.44656 4.74188 2.30344 6.05813 0.987188C7.37438 -0.329063 9.5175 -0.329063 10.8338 0.987188C12.15 2.30344 12.15 4.44656 10.8338 5.76281C9.50063 7.09594 7.37438 7.09594 6.05813 5.76281ZM3.375 23.6334V8.44594H0V23.6334C0 28.2909 3.78 32.0709 8.4375 32.0709H18.5625V28.6959H8.4375C5.63625 28.6959 3.375 26.4347 3.375 23.6334ZM27 30.5016L18.4444 21.9459H12.6563V15.7359C15.0188 17.6766 18.7313 19.3809 21.9375 19.3809V15.7359C19.1363 15.7697 15.8456 14.2678 14.0569 12.2934L11.6944 9.67782C11.3738 9.32344 10.9688 9.03657 10.53 8.83407C10.0406 8.59782 9.48375 8.44594 8.91 8.44594H8.85938C6.76688 8.44594 5.0625 10.1503 5.0625 12.2428V21.9459C5.0625 24.7472 7.32375 27.0084 10.125 27.0084H18.6806L24.5869 32.9147L27 30.5016Z" fill="black"/>
</svg>
