<svg width="40" height="40" viewBox="0 0 40 40" fill="none" xmlns="http://www.w3.org/2000/svg">
<g clip-path="url(#clip0_81_138)">
<path d="M19.9833 3.33337C10.7833 3.33337 3.33333 10.8 3.33333 20C3.33333 29.2 10.7833 36.6667 19.9833 36.6667C29.2 36.6667 36.6667 29.2 36.6667 20C36.6667 10.8 29.2 3.33337 19.9833 3.33337ZM20 33.3334C12.6333 33.3334 6.66667 27.3667 6.66667 20C6.66667 12.6334 12.6333 6.66671 20 6.66671C27.3667 6.66671 33.3333 12.6334 33.3333 20C33.3333 27.3667 27.3667 33.3334 20 33.3334Z" fill="black"/>
<path d="M20.8333 11.6666H18.3333V21.6666L27.0833 26.9166L28.3333 24.8666L20.8333 20.4166V11.6666Z" fill="black"/>
</g>
<defs>
<clipPath id="clip0_81_138">
<rect width="40" height="40" fill="white"/>
</clipPath>
</defs>
</svg>
