<svg width="79" height="75" viewBox="0 0 79 75" fill="none" xmlns="http://www.w3.org/2000/svg">
<path fill-rule="evenodd" clip-rule="evenodd" d="M7.7549 7.42157C6.58333 8.59315 6.58333 10.4788 6.58333 14.25V60.75C6.58333 64.5212 6.58333 66.4068 7.7549 67.5784C8.92648 68.75 10.8121 68.75 14.5833 68.75H19.75C19.75 60.1205 28.5924 53.125 39.5 53.125C50.4076 53.125 59.25 60.1205 59.25 68.75H64.4167C68.1879 68.75 70.0735 68.75 71.2451 67.5784C72.4167 66.4068 72.4167 64.5212 72.4167 60.75V14.25C72.4167 10.4788 72.4167 8.59315 71.2451 7.42157C70.0735 6.25 68.1879 6.25 64.4167 6.25H14.5833C10.8121 6.25 8.92648 6.25 7.7549 7.42157ZM39.5 40.625C44.9538 40.625 49.375 36.4277 49.375 31.25C49.375 26.0723 44.9538 21.875 39.5 21.875C34.0462 21.875 29.625 26.0723 29.625 31.25C29.625 36.4277 34.0462 40.625 39.5 40.625Z" fill="#7E869E" fill-opacity="0.25"/>
<path d="M59.0549 66.5589C58.3924 62.8583 56.0751 59.4681 52.5235 57.0035C48.9719 54.5389 44.4212 53.1631 39.6971 53.1258C34.9731 53.0885 30.3886 54.3921 26.7755 56.8001C23.1624 59.2082 20.7601 62.5611 20.0043 66.2505" stroke="#222222" stroke-width="1.2"/>
<ellipse cx="39.5" cy="31.25" rx="9.875" ry="9.375" stroke="#222222" stroke-width="1.2" stroke-linecap="round"/>
<rect x="7.18333" y="6.85" width="64.6333" height="61.3" rx="3.4" stroke="#222222" stroke-width="1.2"/>
</svg>
